<svg width="17" height="18" viewBox="0 0 17 18" fill="none" xmlns="http://www.w3.org/2000/svg">
<g clip-path="url(#clip0_50_33483)">
<path d="M17 1.93083H15.6366V0.5H0V1.93083V16.0975H1.43442V17.5H15.6224V16.0975H16.9858V1.93083H17ZM1.44862 1.93083H14.2164V14.6667H1.44862V1.93083Z" fill="white"/>
<path d="M5.65264 10.4167H4.23242V11.8334H5.65264V10.4167Z" fill="white"/>
<path d="M7.07256 9H5.65234V10.4167H7.07256V9Z" fill="white"/>
<path d="M8.49248 7.58325H7.07227V8.99992H8.49248V7.58325Z" fill="white"/>
<path d="M4.94253 4.75H4.23242V7.58333H4.94253V4.75Z" fill="white"/>
<path d="M6.00781 6.52083V5.8125H3.16738V6.52083H6.00781Z" fill="white"/>
<path d="M12.2285 10.7708V10.0625H9.38808V10.7708H12.2285Z" fill="white"/>
<path d="M9.9124 6.16675H8.49219V7.58341H9.9124V6.16675Z" fill="white"/>
<path d="M11.3343 4.75H9.91406V6.16667H11.3343V4.75Z" fill="white"/>
</g>
<defs>
<clipPath id="clip0_50_33483">
<rect width="17" height="17" fill="white" transform="translate(0 0.5)"/>
</clipPath>
</defs>
</svg>
