<svg width="17" height="18" viewBox="0 0 17 18" fill="none" xmlns="http://www.w3.org/2000/svg">
<path d="M17 1.92391H15.6358V0.491943H0V1.92391H0.00699588V16.1038H1.44115V17.5079H15.6358V16.1038H17V1.92391ZM1.44115 1.92391H14.2016V14.6719H1.44115V1.92391Z" fill="#F5F5F5"/>
<path d="M4.77759 3.34888H3.35742V4.76687H4.77759V3.34888Z" fill="#F5F5F5"/>
<path d="M6.19751 4.76685H4.77734V6.18484H6.19751V4.76685Z" fill="#F5F5F5"/>
<path d="M7.61743 6.18481H6.19727V7.60281H7.61743V6.18481Z" fill="#F5F5F5"/>
<path d="M7.61719 4.76687V3.34888H6.19702V4.76687H7.61719Z" fill="#F5F5F5"/>
<path d="M4.77734 7.60281V6.18481H3.35718V7.60281H4.77734Z" fill="#F5F5F5"/>
<path d="M9.75805 9H8.33789V10.418H9.75805V9Z" fill="#F5F5F5"/>
<path d="M11.178 10.418H9.75781V11.836H11.178V10.418Z" fill="#F5F5F5"/>
<path d="M12.5979 11.8359H11.1777V13.2539H12.5979V11.8359Z" fill="#F5F5F5"/>
<path d="M12.5977 10.418V9H11.1775V10.418H12.5977Z" fill="#F5F5F5"/>
<path d="M9.75781 13.2539V11.8359H8.33765V13.2539H9.75781Z" fill="#F5F5F5"/>
<path d="M10.465 3.32788C9.28266 3.32788 8.32422 4.28485 8.32422 5.46535C8.32422 6.64585 9.28266 7.60282 10.465 7.60282C11.6473 7.60282 12.6057 6.64585 12.6057 5.46535C12.6057 4.28485 11.6473 3.32788 10.465 3.32788ZM10.465 6.18482C10.0662 6.18482 9.74438 5.86351 9.74438 5.46535C9.74438 5.06719 10.0662 4.74587 10.465 4.74587C10.8637 4.74587 11.1855 5.06719 11.1855 5.46535C11.1855 5.86351 10.8637 6.18482 10.465 6.18482Z" fill="#F5F5F5"/>
<path d="M5.48449 8.99292C4.30219 8.99292 3.34375 9.94989 3.34375 11.1304C3.34375 12.3109 4.30219 13.2679 5.48449 13.2679C6.6668 13.2679 7.62523 12.3109 7.62523 11.1304C7.62523 9.94989 6.6668 8.99292 5.48449 8.99292ZM5.48449 11.8499C5.08573 11.8499 4.76391 11.5285 4.76391 11.1304C4.76391 10.7322 5.08573 10.4109 5.48449 10.4109C5.88326 10.4109 6.20507 10.7322 6.20507 11.1304C6.20507 11.5285 5.88326 11.8499 5.48449 11.8499Z" fill="#F5F5F5"/>
</svg>
