<svg width="17" height="18" viewBox="0 0 17 18" fill="none" xmlns="http://www.w3.org/2000/svg">
<g clip-path="url(#clip0_8_3575)">
<path d="M17 1.93083H15.6366V0.5H0V1.93083V16.0975H1.43442V17.5H15.6224V16.0975H16.9858V1.93083H17ZM1.44862 1.93083H14.2164V14.6667H1.44862V1.93083Z" fill="#F5F5F5"/>
<path d="M6.73076 4.75H5.31055V6.16667H6.73076V4.75Z" fill="#F5F5F5"/>
<path d="M10.3245 10.4451H8.9043V11.8617H10.3245V10.4451Z" fill="#F5F5F5"/>
<path d="M5.31055 10.4449V11.8616H6.73076V10.4449H5.31055Z" fill="#F5F5F5"/>
<path d="M8.9043 4.75008V6.16675H10.3245V4.75008H8.9043Z" fill="#F5F5F5"/>
<path d="M6.74639 4.73584H5.32617V6.15251H6.74639V4.73584Z" fill="#F5F5F5"/>
<path d="M5.31084 6.15259H3.89062V7.56925H5.31084V6.15259Z" fill="#F5F5F5"/>
<path d="M6.73047 11.8051V10.3884H5.31025V11.8051H6.73047Z" fill="#F5F5F5"/>
<path d="M5.31055 10.3883V8.97168H3.89033V10.3883H5.31055Z" fill="#F5F5F5"/>
<path d="M3.89092 7.56909H2.4707V8.98576H3.89092V7.56909Z" fill="#F5F5F5"/>
<path d="M10.3395 10.4026H11.7598V8.98592H10.3395V10.4026Z" fill="#F5F5F5"/>
<path d="M10.3242 6.15242V7.56909H11.7444V6.15242H10.3242Z" fill="#F5F5F5"/>
<path d="M11.7595 8.98584H13.1797V7.56917H11.7595V8.98584Z" fill="#F5F5F5"/>
</g>
<defs>
<clipPath id="clip0_8_3575">
<rect width="17" height="17" fill="white" transform="translate(0 0.5)"/>
</clipPath>
</defs>
</svg>
