<svg width="17" height="18" viewBox="0 0 17 18" fill="none" xmlns="http://www.w3.org/2000/svg">
<path d="M17 1.91318H15.6366V0.47876H0V1.91318V16.1154H1.43442V17.5214H15.6224V16.1154H16.9858V1.91318H17ZM1.44862 1.91318H14.2164V14.6809H1.44862V1.91318Z" fill="#F5F5F5"/>
<path d="M9.317 4.0293H6.47656V5.44951H9.317V4.0293Z" fill="#F5F5F5"/>
<path d="M6.47715 5.44946H3.63672V6.86968H6.47715V5.44946Z" fill="#F5F5F5"/>
<path d="M12.1588 5.44946H9.31836V6.86968H12.1588V5.44946Z" fill="#F5F5F5"/>
<path d="M6.4623 12.5649H9.30273V11.1447H6.4623V12.5649Z" fill="#F5F5F5"/>
<path d="M9.3041 11.1445H12.1445V9.72431H9.3041V11.1445Z" fill="#F5F5F5"/>
<path d="M3.62246 11.1445H6.46289V9.72431H3.62246V11.1445Z" fill="#F5F5F5"/>
<path d="M3.63701 6.86963H2.2168V9.71006H3.63701V6.86963Z" fill="#F5F5F5"/>
<path d="M13.5784 6.86963H12.1582V9.71006H13.5784V6.86963Z" fill="#F5F5F5"/>
<path d="M7.82451 9.71006C8.60888 9.71006 9.24473 9.07421 9.24473 8.28985C9.24473 7.50548 8.60888 6.86963 7.82451 6.86963C7.04015 6.86963 6.4043 7.50548 6.4043 8.28985C6.4043 9.07421 7.04015 9.71006 7.82451 9.71006Z" fill="#F5F5F5"/>
</svg>
