<svg width="280" height="34" viewBox="0 0 280 34" fill="none" xmlns="http://www.w3.org/2000/svg">
<g clip-path="url(#clip0_846_50644)">
<path d="M0 33.2453V4.45508H7.60552L18.2177 23.2464H18.3858V4.45508H24.8045V33.2453H17.1495L6.53739 14.5727H6.36926V33.2453H0Z" fill="#F5F5F5"/>
<path d="M28.3047 22.5144C28.3047 16.0561 32.1322 11.3682 39.0355 11.3682C45.9388 11.3682 49.7663 16.0561 49.7663 22.5144C49.7663 28.9726 46.0278 33.621 39.0355 33.621C32.0432 33.621 28.3047 28.9726 28.3047 22.5144ZM43.3179 22.5144C43.3179 18.6078 41.6762 16.9165 39.0454 16.9165C36.4146 16.9165 34.763 18.6473 34.763 22.5144C34.763 26.3814 36.4443 28.0627 39.0454 28.0627C41.6465 28.0627 43.3179 26.421 43.3179 22.5144Z" fill="#F5F5F5"/>
<path d="M52.4473 33.2452V11.7341H58.1242L58.6187 13.7913H58.7869C59.9836 12.3967 61.8726 11.3682 64.6715 11.3682C69.4385 11.3682 72.6528 14.3253 72.6528 19.1023V33.2452H66.3231V21.0704C66.3231 18.6078 65.2155 17.1242 62.7034 17.1242C60.4385 17.1242 58.7967 18.7264 58.7967 21.3177V33.2452H52.467H52.4473Z" fill="#F5F5F5"/>
<path d="M74.9083 22.4748C74.9083 15.977 78.6963 11.3682 85.56 11.3682C91.9392 11.3682 95.2227 15.2352 95.5095 20.21H89.1304C88.9227 18.3209 87.6073 16.9165 85.5501 16.9165C82.8798 16.9165 81.3567 18.6078 81.3567 22.4649C81.3567 26.3221 82.8798 28.0627 85.5501 28.0627C87.6073 28.0627 88.9227 26.6682 89.1304 24.7693H95.5095C95.2227 29.7441 91.9688 33.6111 85.7183 33.6111C78.8545 33.6111 74.8984 29.0023 74.8984 22.4649L74.9083 22.4748Z" fill="#F5F5F5"/>
<path d="M97.1602 22.5144C97.1602 16.0561 100.988 11.3682 107.891 11.3682C114.794 11.3682 118.622 16.0561 118.622 22.5144C118.622 28.9726 114.883 33.621 107.891 33.621C100.899 33.621 97.1602 28.9726 97.1602 22.5144ZM112.173 22.5144C112.173 18.6078 110.532 16.9165 107.901 16.9165C105.27 16.9165 103.618 18.6473 103.618 22.5144C103.618 26.3814 105.3 28.0627 107.901 28.0627C110.502 28.0627 112.173 26.421 112.173 22.5144Z" fill="#F5F5F5"/>
<path d="M121.303 33.2452V11.7341H126.98L127.474 13.7913H127.642C128.839 12.3967 130.728 11.3682 133.527 11.3682C138.294 11.3682 141.508 14.3253 141.508 19.1023V33.2452H135.179V21.0704C135.179 18.6078 134.071 17.1242 131.559 17.1242C129.294 17.1242 127.652 18.7264 127.652 21.3177V33.2452H121.323H121.303Z" fill="#F5F5F5"/>
<path d="M147.305 33.2448V17.0843H143.566V11.7338H147.305V10.6261C147.305 5.36451 151.291 2.39746 156.315 2.39746C157.383 2.39746 158.204 2.51614 158.946 2.68428V8.03485C158.243 7.90627 157.502 7.82715 156.888 7.82715C154.831 7.82715 153.635 8.56891 153.635 10.6261V11.7338H158.738V17.0843H153.635V33.2448H147.305Z" fill="#F5F5F5"/>
<path d="M159.766 22.5144C159.766 16.0561 163.593 11.3682 170.496 11.3682C177.4 11.3682 181.227 16.0561 181.227 22.5144C181.227 28.9726 177.489 33.621 170.496 33.621C163.504 33.621 159.766 28.9726 159.766 22.5144ZM174.779 22.5144C174.779 18.6078 173.137 16.9165 170.506 16.9165C167.876 16.9165 166.224 18.6473 166.224 22.5144C166.224 26.3814 167.905 28.0627 170.506 28.0627C173.107 28.0627 174.779 26.421 174.779 22.5144Z" fill="#F5F5F5"/>
<path d="M183.908 33.2452V11.7341H189.17L189.664 14.8594H189.832C190.782 12.9704 192.592 11.3682 195.341 11.3682H196.825V17.1638H194.768C191.761 17.1638 189.832 19.1814 189.832 22.633V33.2452H183.908Z" fill="#F5F5F5"/>
<path d="M232.646 19.1023V33.2452H226.316V21.0704C226.316 18.6078 225.456 17.1242 222.944 17.1242C220.679 17.1242 219.363 18.766 219.363 21.3177V33.2452H213.113V21.0704C213.113 18.6078 212.252 17.1242 209.74 17.1242C207.475 17.1242 205.834 18.7264 205.834 21.3177V33.2452H199.504V11.7341H205.181L205.675 13.7913H205.843C207.04 12.3967 208.929 11.3682 211.728 11.3682C214.527 11.3682 216.871 12.3967 218.147 14.2858H218.266C219.373 12.8912 221.47 11.3682 224.684 11.3682C229.451 11.3682 232.666 14.3253 232.666 19.1023H232.646Z" fill="#F5F5F5"/>
<path d="M235.949 33.2445V11.7334H242.279V33.2445H235.949Z" fill="#F5F5F5"/>
<path d="M244.543 25.9661H250.873C250.873 27.1629 251.822 28.3497 254.077 28.3497C256.332 28.3497 257.123 27.5288 257.123 26.787C257.123 25.8376 256.421 25.3925 254.947 25.0958L251.783 24.4826C248.331 23.82 245.206 22.0595 245.206 17.7375C245.206 14.2463 248.291 11.3584 254.047 11.3584C259.803 11.3584 263.018 14.5628 263.018 18.5584H256.767C256.807 17.5694 256.065 16.3331 253.929 16.3331C252.366 16.3331 251.417 16.9958 251.417 17.8167C251.417 18.6375 251.99 19.0925 253.019 19.3002L257.133 20.0815C260.427 20.6947 263.512 22.2178 263.512 26.7475C263.512 31.2772 259.566 33.6112 254.097 33.6112C247.391 33.6112 244.681 30.3574 244.553 25.9661H244.543Z" fill="#F5F5F5"/>
<path d="M268.438 26.7472V17.1241H264.947V11.7339H268.735V7.2537L274.373 6.10645H274.788V11.7438H279.931V17.134H274.788V25.234C274.788 27.2516 275.648 28.112 277.547 28.112C278.25 28.112 278.942 27.9933 279.604 27.7461H280.02V33.0077C279.367 33.2549 277.676 33.6208 275.658 33.6208C270.684 33.6208 268.458 30.6637 268.458 26.7571L268.438 26.7472Z" fill="#F5F5F5"/>
<path d="M242.408 0.379883H240.252V2.53594H242.408V0.379883Z" fill="#F5F5F5"/>
<path d="M238.086 4.70215H235.93V6.8582H238.086V4.70215Z" fill="#F5F5F5"/>
<path d="M242.408 4.70215H240.252V6.8582H242.408V4.70215Z" fill="#F5F5F5"/>
<path d="M238.086 0.379883H235.93V2.53594H238.086V0.379883Z" fill="#F5F5F5"/>
<path d="M240.242 2.53613H238.086V4.69219H240.242V2.53613Z" fill="#F5F5F5"/>
</g>
<defs>
<clipPath id="clip0_846_50644">
<rect width="280" height="33.2408" fill="white" transform="translate(0 0.379883)"/>
</clipPath>
</defs>
</svg>
