<svg width="17" height="18" viewBox="0 0 17 18" fill="none" xmlns="http://www.w3.org/2000/svg">
<g clip-path="url(#clip0_57_40655)">
<path d="M17 1.93083H15.6366V0.5H0V1.93083V16.0975H1.43442V17.5H15.6224V16.0975H16.9858V1.93083H17ZM1.44862 1.93083H14.2164V14.6667H1.44862V1.93083Z" fill="#F5F5F5"/>
<path d="M5.67998 4.75H4.25977V6.16667H5.67998V4.75Z" fill="#F5F5F5"/>
<path d="M7.1292 6.15259H5.70898V7.56925H7.1292V6.15259Z" fill="#F5F5F5"/>
<path d="M8.53545 7.61157H7.11523V9.02824H8.53545V7.61157Z" fill="#F5F5F5"/>
<path d="M9.96905 9.01416H8.54883V10.4308H9.96905V9.01416Z" fill="#F5F5F5"/>
<path d="M11.389 10.4309H9.96875V11.8476H11.389V10.4309Z" fill="#F5F5F5"/>
<path d="M4.25977 10.4307V11.8474H5.67998V10.4307H4.25977Z" fill="#F5F5F5"/>
<path d="M5.67969 9.00008V10.4167H7.0999V9.00008H5.67969Z" fill="#F5F5F5"/>
<path d="M8.54883 6.15243V7.56909H9.96904V6.15243H8.54883Z" fill="#F5F5F5"/>
<path d="M9.96875 4.75008V6.16675H11.389V4.75008H9.96875Z" fill="#F5F5F5"/>
</g>
<defs>
<clipPath id="clip0_57_40655">
<rect width="17" height="17" fill="white" transform="translate(0 0.5)"/>
</clipPath>
</defs>
</svg>
