<svg width="17" height="18" viewBox="0 0 17 18" fill="none" xmlns="http://www.w3.org/2000/svg">
<path d="M17 1.86565H15.6358V0.421875H0V1.86565H0.00699588V16.1625H1.44115V17.5781H15.6358V16.1625H17V1.86565ZM1.44115 1.86565H14.2016V14.7187H1.44115V1.86565Z" fill="#F5F5F5"/>
<path d="M10.3757 6.83775C10.3547 6.60534 10.2778 6.37293 10.1588 6.14756C9.94197 5.73204 9.62016 5.44328 9.19341 5.26721C8.76667 5.09819 8.28395 5.01367 7.73827 5.01367C6.99671 5.01367 6.40206 5.17566 5.97531 5.49962C5.54156 5.82359 5.24774 6.23912 5.09383 6.76028L6.50699 7.21102C6.60494 6.92931 6.77983 6.72507 7.03169 6.61943C7.27654 6.50674 7.5214 6.4504 7.74527 6.4504C8.15802 6.4504 8.45185 6.53492 8.62675 6.71099C8.75967 6.8448 8.82963 7.05608 8.85761 7.30258C8.61276 7.33779 8.34691 7.38005 8.12304 7.41526C7.72428 7.47161 7.36049 7.53499 7.04568 7.60542C6.73086 7.67585 6.45802 7.74628 6.22716 7.83079C5.89136 7.95756 5.63251 8.10546 5.43662 8.28857C5.24074 8.47168 5.10082 8.68297 5.00987 8.92242C4.91893 9.16188 4.87695 9.42246 4.87695 9.71121C4.87695 10.0563 4.95391 10.3732 5.11481 10.662C5.27572 10.9507 5.50658 11.1761 5.8144 11.3451C6.12222 11.5142 6.5 11.5987 6.94074 11.5987C7.47243 11.5987 7.92016 11.5071 8.26996 11.317C8.54979 11.1691 8.80864 10.9296 9.0535 10.6338V11.4226H10.4177V7.61246C10.4177 7.33075 10.4037 7.07017 10.3827 6.83775H10.3757ZM8.69671 9.5281C8.65473 9.61966 8.57778 9.7253 8.45885 9.85911C8.33992 9.99293 8.18601 10.1056 7.99012 10.2113C7.79424 10.3169 7.54938 10.3662 7.26255 10.3662C7.08066 10.3662 6.92675 10.338 6.80082 10.2887C6.6749 10.2394 6.56996 10.1549 6.5 10.0563C6.43004 9.95771 6.39506 9.83094 6.39506 9.69009C6.39506 9.58444 6.41605 9.49289 6.45802 9.40837C6.5 9.32386 6.56996 9.24639 6.6609 9.17596C6.75185 9.10553 6.87778 9.03511 7.03169 8.97876C7.16461 8.92946 7.31852 8.88016 7.49341 8.83791C7.66831 8.79565 7.89918 8.74635 8.18601 8.69705C8.3679 8.66184 8.59177 8.62662 8.84362 8.58437C8.84362 8.69705 8.84362 8.80269 8.82963 8.95059C8.81564 9.17596 8.76667 9.37316 8.68971 9.54219L8.69671 9.5281Z" fill="#F5F5F5"/>
</svg>
