<svg width="17" height="18" viewBox="0 0 17 18" fill="none" xmlns="http://www.w3.org/2000/svg">
<path d="M17 1.91318H15.6366V0.47876H0V1.91318V16.1154H1.43442V17.5214H15.6224V16.1154H16.9858V1.91318H17ZM1.44862 1.91318H14.2164V14.6809H1.44862V1.91318Z" fill="#F5F5F5"/>
<path d="M11.4471 7.57994H9.51563L10.8364 6.25913L9.82808 5.26498L8.52148 6.57158V4.7395H7.10126V6.54318L5.79466 5.23658L4.78631 6.24493L6.12131 7.57994H4.23242V9.00015H6.09291L4.80051 10.2926L5.80886 11.3009L7.10126 9.99431V11.8548H8.52148V9.9659L9.89909 11.3435L10.8932 10.3494L9.55824 9.00015H11.4471V7.57994Z" fill="#F5F5F5"/>
</svg>
